HIERARCHY
ROOT Hips
{
  OFFSET 5.84602e-005 68.8428 3.50346
  CHANNELS 6 Xposition Yposition Zposition Zrotation Xrotation Yrotation
  JOINT Spine
  {
    OFFSET 0 8.597 -4.6522
    CHANNELS 3 Zrotation Xrotation Yrotation
    JOINT Spine1
    {
      OFFSET 0 7.8454 0.4098
      CHANNELS 3 Zrotation Xrotation Yrotation
      JOINT Spine2
      {
        OFFSET 0 9.7078 -2.1609
        CHANNELS 3 Zrotation Xrotation Yrotation
        JOINT Neck
        {
          OFFSET 0 21.8761 -0.4549
          CHANNELS 3 Zrotation Xrotation Yrotation
          JOINT Head
          {
            OFFSET 0 12.3537 3.3602
            CHANNELS 3 Zrotation Xrotation Yrotation
            End Site
            {
              OFFSET 0.0001 18.9506 0.5657
            }
          }
        }
        JOINT LeftShoulder
        {
          OFFSET 2.2086 21.1115 7.2329
          CHANNELS 3 Zrotation Xrotation Yrotation
          JOINT LeftArm
          {
            OFFSET 13.1193 3.0282 -4.8998
            CHANNELS 3 Zrotation Xrotation Yrotation
            JOINT LeftForeArm
            {
              OFFSET 27.4081 -0.0973053 -0.2375
              CHANNELS 3 Zrotation Xrotation Yrotation
              JOINT LeftHand
              {
                OFFSET 22.8641 0.0662994 -0.1369
                CHANNELS 3 Zrotation Xrotation Yrotation
                JOINT LeftHandIndex1
                {
                  OFFSET 8.8614 0.775009 2.4612
                  CHANNELS 3 Zrotation Xrotation Yrotation
                  JOINT LeftHandIndex2
                  {
                    OFFSET 3.3146 -0.808304 0.5841
                    CHANNELS 3 Zrotation Xrotation Yrotation
                    JOINT LeftHandIndex3
                    {
                      OFFSET 2.2628 -0.552002 0.3989
                      CHANNELS 3 Zrotation Xrotation Yrotation
                      End Site
                      {
                        OFFSET 1.6102 -0.4807 0.2612
                      }
                    }
                  }
                }
                JOINT LeftHandMiddle1
                {
                  OFFSET 8.9937 0.895004 0.2143
                  CHANNELS 3 Zrotation Xrotation Yrotation
                  JOINT LeftHandMiddle2
                  {
                    OFFSET 4.0984 0.0113983 -0.0242
                    CHANNELS 3 Zrotation Xrotation Yrotation
                    JOINT LeftHandMiddle3
                    {
                      OFFSET 2.2716 0.00689697 -0.0138001
                      CHANNELS 3 Zrotation Xrotation Yrotation
                      End Site
                      {
                        OFFSET 2.0404 -0.1441 0.0027
                      }
                    }
                  }
                }
                JOINT LeftHandRing1
                {
                  OFFSET 8.5234 0.597198 -2.0164
                  CHANNELS 3 Zrotation Xrotation Yrotation
                  JOINT LeftHandRing2
                  {
                    OFFSET 3.7188 -0.188293 -0.2328
                    CHANNELS 3 Zrotation Xrotation Yrotation
                    JOINT LeftHandRing3
                    {
                      OFFSET 2.1191 -0.106598 -0.1332
                      CHANNELS 3 Zrotation Xrotation Yrotation
                      End Site
                      {
                        OFFSET 1.8737 -0.2304 -0.0886
                      }
                    }
                  }
                }
                JOINT LeftHandPinky1
                {
                  OFFSET 7.9094 -0.601089 -3.4825
                  CHANNELS 3 Zrotation Xrotation Yrotation
                  JOINT LeftHandPinky2
                  {
                    OFFSET 2.2874 -0.477005 -0.6314
                    CHANNELS 3 Zrotation Xrotation Yrotation
                    JOINT LeftHandPinky3
                    {
                      OFFSET 1.6774 -0.349396 -0.4633
                      CHANNELS 3 Zrotation Xrotation Yrotation
                      End Site
                      {
                        OFFSET 1.4888 -0.4091 -0.3416
                      }
                    }
                  }
                }
                JOINT LeftHandThumb1
                {
                  OFFSET 1.833 -1.3875 1.3896
                  CHANNELS 3 Zrotation Xrotation Yrotation
                  JOINT LeftHandThumb2
                  {
                    OFFSET 3.4129 -1.121 2.5732
                    CHANNELS 3 Zrotation Xrotation Yrotation
                    JOINT LeftHandThumb3
                    {
                      OFFSET 2.2474 -0.804199 1.6192
                      CHANNELS 3 Zrotation Xrotation Yrotation
                      End Site
                      {
                        OFFSET 1.6527 -0.5689 1.1317
                      }
                    }
                  }
                }
              }
            }
          }
        }
        JOINT RightShoulder
        {
          OFFSET -2.2086 21.1115 7.2329
          CHANNELS 3 Zrotation Xrotation Yrotation
          JOINT RightArm
          {
            OFFSET -13.1216 3.0287 -4.9007
            CHANNELS 3 Zrotation Xrotation Yrotation
            JOINT RightForeArm
            {
              OFFSET -27.4081 -0.0973053 -0.2375
              CHANNELS 3 Zrotation Xrotation Yrotation
              JOINT RightHand
              {
                OFFSET -22.8641 0.0664063 -0.1369
                CHANNELS 3 Zrotation Xrotation Yrotation
                JOINT RightHandIndex1
                {
                  OFFSET -8.8614 0.774994 2.4612
                  CHANNELS 3 Zrotation Xrotation Yrotation
                  JOINT RightHandIndex2
                  {
                    OFFSET -3.3146 -0.808304 0.5841
                    CHANNELS 3 Zrotation Xrotation Yrotation
                    JOINT RightHandIndex3
                    {
                      OFFSET -2.2628 -0.552002 0.3989
                      CHANNELS 3 Zrotation Xrotation Yrotation
                      End Site
                      {
                        OFFSET -1.6102 -0.4807 0.2612
                      }
                    }
                  }
                }
                JOINT RightHandMiddle1
                {
                  OFFSET -8.9937 0.894989 0.2143
                  CHANNELS 3 Zrotation Xrotation Yrotation
                  JOINT RightHandMiddle2
                  {
                    OFFSET -4.0984 0.0113983 -0.0242
                    CHANNELS 3 Zrotation Xrotation Yrotation
                    JOINT RightHandMiddle3
                    {
                      OFFSET -2.2716 0.00691223 -0.0138001
                      CHANNELS 3 Zrotation Xrotation Yrotation
                      End Site
                      {
                        OFFSET -2.0404 -0.1441 0.0027
                      }
                    }
                  }
                }
                JOINT RightHandRing1
                {
                  OFFSET -8.5234 0.597198 -2.0164
                  CHANNELS 3 Zrotation Xrotation Yrotation
                  JOINT RightHandRing2
                  {
                    OFFSET -3.7188 -0.188309 -0.2328
                    CHANNELS 3 Zrotation Xrotation Yrotation
                    JOINT RightHandRing3
                    {
                      OFFSET -2.1191 -0.106598 -0.1332
                      CHANNELS 3 Zrotation Xrotation Yrotation
                      End Site
                      {
                        OFFSET -1.8737 -0.2304 -0.0886
                      }
                    }
                  }
                }
                JOINT RightHandPinky1
                {
                  OFFSET -7.9094 -0.601105 -3.4825
                  CHANNELS 3 Zrotation Xrotation Yrotation
                  JOINT RightHandPinky2
                  {
                    OFFSET -2.2874 -0.477005 -0.6314
                    CHANNELS 3 Zrotation Xrotation Yrotation
                    JOINT RightHandPinky3
                    {
                      OFFSET -1.6774 -0.349396 -0.4633
                      CHANNELS 3 Zrotation Xrotation Yrotation
                      End Site
                      {
                        OFFSET -1.4888 -0.4091 -0.3416
                      }
                    }
                  }
                }
                JOINT RightHandThumb1
                {
                  OFFSET -1.833 -1.38751 1.3896
                  CHANNELS 3 Zrotation Xrotation Yrotation
                  JOINT RightHandThumb2
                  {
                    OFFSET -3.41299 -1.12099 2.5732
                    CHANNELS 3 Zrotation Xrotation Yrotation
                    JOINT RightHandThumb3
                    {
                      OFFSET -2.24741 -0.804108 1.6192
                      CHANNELS 3 Zrotation Xrotation Yrotation
                      End Site
                      {
                        OFFSET -1.6527 -0.5689 1.1317
                      }
                    }
                  }
                }
              }
            }
          }
        }
      }
    }
  }
  JOINT RightUpLeg
  {
    OFFSET -9.1966 3.8861 -0.7581
    CHANNELS 3 Zrotation Xrotation Yrotation
    JOINT RightLeg
    {
      OFFSET -0.7359 -41.0265 0
      CHANNELS 3 Zrotation Xrotation Yrotation
      JOINT RightFoot
      {
        OFFSET 0 -40.2855 0
        CHANNELS 3 Zrotation Xrotation Yrotation
        JOINT RightToeBase
        {
          OFFSET 0 -5.6122 11.7359
          CHANNELS 3 Zrotation Xrotation Yrotation
          End Site
          {
            OFFSET 0 0 7.8731
          }
        }
      }
    }
  }
  JOINT LeftUpLeg
  {
    OFFSET 9.1965 3.8864 -0.7581
    CHANNELS 3 Zrotation Xrotation Yrotation
    JOINT LeftLeg
    {
      OFFSET 0.7359 -41.0268 0
      CHANNELS 3 Zrotation Xrotation Yrotation
      JOINT LeftFoot
      {
        OFFSET 0 -40.2855 0
        CHANNELS 3 Zrotation Xrotation Yrotation
        JOINT LeftToeBase
        {
          OFFSET 0 -5.6122 11.7359
          CHANNELS 3 Zrotation Xrotation Yrotation
          End Site
          {
            OFFSET 0 0 7.8731
          }
        }
      }
    }
  }
}
MOTION
Frames:	6
Frame Time:	0.0333333
5.84602e-005 68.8428 3.50346 0 0 -0 0 0 -0 0 0 -0 0 0 -0 0 0 -0 0 0 -0 0 0 -0 0 0 -0 0 0 -0 0 0 -0 0 0 -0 0 0 -0 0 0 -0 0 0 -0 -0.0146107 -8.87603e-005 -2.63497e-007 2.99804e-018 -2.42657e-020 -1.42182e-022 0 0 -0 -0.0187562 -0.001176 5.858e-005 5.06224e-018 3.88251e-019 1.21329e-020 0 0 -0 -0.012269 -0.00324817 0.000675346 -1.74678e-018 3.88251e-019 -0 0 0 -0 0 0 -0 0 0 -0 0 0 -0 0 0 -0 0 0 -0 0 0 -0 0 0 -0 0 0 -0 0 0 -0 0 0 -0 0.0149955 -9.10982e-005 2.64101e-007 -9.69331e-018 1.21329e-020 -4.7394e-023 0 0 -0 0.0189956 -0.00119102 -5.96516e-005 -5.41541e-019 0 2.42657e-020 0 0 -0 0.0122698 -0.00324857 -0.000673756 -2.00796e-019 0 -1.94126e-019 0 0 -0 0 0 -0 0 0 -0 3.39842 1.33031 -0.0637918 -5.65207e-008 0.834868 -0.000436188 -3.39935 -2.16518 -0.0642563 -8.89002e-024 -1.18485e-023 -1.48106e-024 -3.39844 1.35642 0.0640283 -3.18788e-007 0.782166 -0.000588827 3.39931 -2.13858 0.0634662 1.1399e-023 0 -0 
5.97046 21.3879 3.18454 66.6667 1.86792e-007 5.1864 0.138901 4.05128 -0.123217 0.287784 8.1022 -0.257295 0.287748 8.1022 -0.25729 0.0146974 5.89964 -0.00397126 -9.67807 7.21901 1.66431 -25.1874 4.09003 -14.494 -13.072 3.43917 -29.9843 -17.2333 11.7857 -8.27365 -5.29674 -8.20987e-006 -0.0789968 -1.76556e-031 -3.18055e-015 -3.18055e-015 1.59028e-015 6.36111e-015 -1.59028e-015 -3.18055e-015 3.18055e-015 -0 -1.76556e-031 -3.18055e-015 -3.18055e-015 -0.0146609 -9.04062e-005 -1.93172e-007 1.84472e-007 -1.94533e-006 9.66682e-007 -1.76556e-031 -3.18055e-015 -3.18055e-015 -0.0187551 -0.00117246 5.79688e-005 1.59028e-015 -6.36111e-015 -3.18055e-015 -1.76556e-031 -3.18055e-015 -3.18055e-015 -0.0122887 -0.00325276 0.000677156 -1.59028e-015 3.18055e-015 1.59028e-015 -1.76556e-031 -3.18055e-015 -3.18055e-015 1.59028e-015 6.36111e-015 -1.59028e-015 -3.18055e-015 3.18055e-015 -0 -0.464407 3.25112 -3.97059 60.6383 -1.52264 -18.1107 -12.2987 2.6599 77.8649 -3.97571 -10.4778 5.0184 8.7092e-007 1.39856e-006 -2.80555e-006 -8.79353e-007 -2.10245e-006 -1.4126e-007 8.7092e-007 1.39856e-006 -2.80555e-006 8.7092e-007 1.39856e-006 -2.80555e-006 0.0149958 -9.10599e-005 2.88088e-006 7.1363e-007 6.94925e-007 -4.06293e-006 8.7092e-007 1.39856e-006 -2.80555e-006 0.0189945 -0.00119409 -6.34503e-005 8.71062e-007 1.39808e-006 -2.80579e-006 8.7092e-007 1.39856e-006 -2.80555e-006 0.0122632 -0.00324586 -0.00067176 7.13276e-007 6.94752e-007 -4.06299e-006 8.7092e-007 1.39856e-006 -2.80555e-006 -8.79353e-007 -2.10245e-006 -1.4126e-007 8.7092e-007 1.39856e-006 -2.80555e-006 -12.9194 -40.7141 -22.4053 3.86501 54.3315 -5.33223 -5.86242 7.07017 0.00906138 -7.95139e-015 6.36111e-015 -0 13.174 -46.6913 42.2207 -57.3264 72.8787 64.8932 3.17011 9.18807 -5.99382 -3.08392e-006 1.26924e-006 -3.75234e-007 
6.38341 1.56181 3.05654 96.6667 -2.39586e-007 7.52028 0.199643 5.90271 -0.185075 0.421944 11.8047 -0.394118 0.421957 11.8047 -0.39412 -0.0540879 8.6815 0.0146354 -14.2762 10.4595 2.46066 -35.5206 5.51639 -20.6103 -17.8911 4.14628 -43.7534 -24.5325 16.8457 -13.1302 -7.12944 -0.000797298 0.276399 -3.53113e-031 -6.36111e-015 -3.18055e-015 7.4546e-007 -2.63682e-006 2.10003e-008 -1.59028e-015 -6.36111e-015 1.59028e-015 -3.53113e-031 -6.36111e-015 -3.18055e-015 -0.0146137 -8.97252e-005 4.58295e-006 7.95139e-015 3.18055e-015 4.77083e-015 -3.53113e-031 -6.36111e-015 -3.18055e-015 -0.0187811 -0.00118395 6.00445e-005 -1.59028e-015 9.54166e-015 4.77083e-015 -3.53113e-031 -6.36111e-015 -3.18055e-015 -0.0122265 -0.00323847 0.000673915 6.36111e-015 6.36111e-015 1.59028e-015 -3.53113e-031 -6.36111e-015 -3.18055e-015 7.4546e-007 -2.63682e-006 2.10003e-008 -1.59028e-015 -6.36111e-015 1.59028e-015 -0.812972 5.03182 -5.93261 87.858 -2.14601 -26.4374 -16.9791 -6.68996 111.747 -5.05615 -15.235 7.83162 4.47266e-016 -7.95139e-016 -6.36111e-015 2.48481e-016 -3.47873e-016 -3.18055e-015 1.04362e-015 -1.39149e-015 -3.18055e-015 4.47266e-016 -7.95139e-016 -6.36111e-015 0.0149948 -9.08106e-005 5.57735e-007 -1.09332e-015 -1.01877e-015 -0 4.47266e-016 -7.95139e-016 -6.36111e-015 0.0190069 -0.0011918 -6.36442e-005 9.93923e-017 -1.56543e-015 -6.36111e-015 4.47266e-016 -7.95139e-016 -6.36111e-015 0.0122705 -0.00324883 -0.000681674 5.46658e-016 1.01877e-015 -3.18055e-015 4.47266e-016 -7.95139e-016 -6.36111e-015 2.48481e-016 -3.47873e-016 -3.18055e-015 1.04362e-015 -1.39149e-015 -3.18055e-015 -37.9328 -55.0923 -45.7623 18.6735 79.5471 -20.2918 -7.28341 10.7342 -0.0337905 0 0 -6.36111e-015 46.1036 -50.5724 79.3213 -137.303 57.0569 140.774 3.503 15.7431 -6.71859 1.86786e-006 8.27384e-008 -4.80711e-008 
6.71235 5.9387 3.19006 90 -3.97569e-016 7.00164 0.185967 5.55374 -0.171873 0.391561 11.107 -0.364543 0.391547 11.107 -0.364553 -0.209595 8.34581 0.0571064 -13.4767 9.73262 2.33965 -32.481 4.75474 -18.2259 -16.9125 3.98374 -41.1765 -24.5766 15.6587 -13.9038 -5.49752 0.000714212 1.06647 -1.59028e-015 -9.54166e-015 -4.77083e-015 -1.59028e-015 0 -0 -6.36111e-015 -9.54166e-015 -1.59028e-015 -1.59028e-015 -9.54166e-015 -4.77083e-015 -0.0146256 -8.75122e-005 2.72656e-006 -7.95139e-015 -2.54444e-014 -0 -1.59028e-015 -9.54166e-015 -4.77083e-015 -0.0187365 -0.00117525 5.99262e-005 -1.59028e-015 9.54166e-015 -0 -1.59028e-015 -9.54166e-015 -4.77083e-015 -0.0122727 -0.00325014 0.000677665 -5.29669e-031 9.54166e-015 3.18055e-015 -1.59028e-015 -9.54166e-015 -4.77083e-015 -1.59028e-015 0 -0 -6.36111e-015 -9.54166e-015 -1.59028e-015 -1.38599 5.37256 -5.86074 82.36 -2.16162 -24.9587 -16.5284 -4.01785 104.852 -4.67242 -14.4239 8.11834 -2.98146e-007 -3.77164e-007 2.96605e-006 1.21051e-006 -1.56975e-006 -3.52611e-006 2.15324e-007 -1.32109e-006 2.40519e-007 -2.98146e-007 -3.77164e-007 2.96605e-006 0.014979 -9.18314e-005 -1.92992e-006 -2.98355e-007 -3.76775e-007 2.9661e-006 -2.98146e-007 -3.77164e-007 2.96605e-006 0.0189817 -0.00119178 -5.88295e-005 -2.98383e-007 -3.76656e-007 2.96612e-006 -2.98146e-007 -3.77164e-007 2.96605e-006 0.0122641 -0.00324714 -0.0006779 -2.98233e-007 -3.76802e-007 2.96611e-006 -2.98146e-007 -3.77164e-007 2.96605e-006 1.21051e-006 -1.56975e-006 -3.52611e-006 2.15324e-007 -1.32109e-006 2.40519e-007 -31.1464 -52.8293 -39.4852 11.7959 74.7407 -13.3546 -6.89469 9.59819 -0.0905425 -5.5734e-007 1.47402e-006 1.43441e-006 38.5956 -51.3554 71.2235 -129.509 62.9808 133.916 3.33771 14.0147 -6.26765 -2.55497e-006 -1.60246e-006 3.47553e-007 
6.92412 5.92042 3.27629 90 -3.97569e-016 7.00164 0.185729 5.60495 -0.17261 0.391319 11.2094 -0.366228 0.391385 11.2094 -0.366229 -0.350062 8.57698 0.096038 -13.6652 9.72656 2.3869 -31.8437 4.38997 -17.3834 -16.954 3.92696 -41.573 -25.8788 15.6299 -15.4455 -4.49332 0.0168109 1.77903 3.18055e-015 9.54166e-015 9.54166e-015 -7.43232e-007 -1.71756e-007 -3.78625e-007 7.95139e-015 6.36111e-015 -0 3.18055e-015 9.54166e-015 9.54166e-015 -0.0146027 -8.77775e-005 1.86484e-006 3.18055e-015 -6.36111e-015 -4.77083e-015 3.18055e-015 9.54166e-015 9.54166e-015 -0.0187285 -0.00117405 6.22959e-005 -6.36111e-015 6.36111e-015 -0 3.18055e-015 9.54166e-015 9.54166e-015 -0.0122392 -0.00323743 0.000677834 -1.59028e-015 -3.18055e-015 -6.36111e-015 3.18055e-015 9.54166e-015 9.54166e-015 -7.43232e-007 -1.71756e-007 -3.78625e-007 7.95139e-015 6.36111e-015 -0 -1.90758 5.978 -6.15365 82.7965 -2.28141 -25.2625 -16.5704 -3.89385 105.289 -4.51761 -14.6175 8.87754 6.34875e-007 -7.71412e-007 -2.98586e-006 8.48426e-007 -3.97057e-008 3.13525e-006 -1.06776e-007 -3.65853e-007 -3.06055e-006 6.34875e-007 -7.71412e-007 -2.98586e-006 0.0149848 -9.09558e-005 1.41967e-005 -1.06556e-007 -3.66255e-007 -3.0605e-006 6.34875e-007 -7.71412e-007 -2.98586e-006 0.0189769 -0.00118942 -5.60177e-005 -1.06526e-007 -3.66378e-007 -3.06049e-006 6.34875e-007 -7.71412e-007 -2.98586e-006 0.0122663 -0.00324756 -0.000682287 -1.06678e-007 -3.6623e-007 -3.06052e-006 6.34875e-007 -7.71412e-007 -2.98586e-006 8.48426e-007 -3.97057e-008 3.13525e-006 -1.06776e-007 -3.65853e-007 -3.06055e-006 -31.3719 -53.0315 -39.7029 11.9986 75.231 -13.5584 -6.87302 9.37126 -0.14064 6.69097e-007 -1.76881e-006 -1.72117e-006 38.8598 -51.4522 71.5013 -130.209 62.7855 134.549 3.27578 13.801 -6.14041 -3.39461e-006 6.09341e-007 -9.75028e-008 
7.13587 5.90215 3.36252 90 -3.97569e-016 7.00164 0.185425 5.65617 -0.173349 0.391152 11.3119 -0.367902 0.391128 11.3119 -0.367908 -0.490257 8.80822 0.135347 -13.8536 9.72033 2.43415 -31.2004 4.0341 -16.5361 -16.9959 3.87044 -41.9696 -27.1819 15.6351 -16.9878 -3.48769 0.0454228 2.49236 1.59028e-015 6.36111e-015 4.77083e-015 -3.18055e-015 3.18055e-015 -6.36111e-015 3.18055e-015 0 -1.59028e-015 1.59028e-015 6.36111e-015 4.77083e-015 -0.0146588 -9.19409e-005 -3.84561e-007 4.77083e-015 0 -1.59028e-015 1.59028e-015 6.36111e-015 4.77083e-015 -0.0187013 -0.00117695 6.03011e-005 1.59028e-015 6.36111e-015 1.59028e-015 1.59028e-015 6.36111e-015 4.77083e-015 -0.0122623 -0.00324569 0.000674306 -1.59028e-015 6.36111e-015 1.11319e-014 1.59028e-015 6.36111e-015 4.77083e-015 -3.18055e-015 3.18055e-015 -6.36111e-015 3.18055e-015 0 -1.59028e-015 -2.42703 6.58659 -6.44156 83.2325 -2.40353 -25.5655 -16.6132 -3.77006 105.727 -4.35994 -14.8092 9.63842 -7.41774e-007 4.05378e-007 -7.4824e-008 1.98785e-015 -2.38542e-015 -3.18055e-015 -1.14715e-006 -3.36396e-007 -1.68473e-007 -7.41774e-007 4.05378e-007 -7.4824e-008 0.0149805 -8.97934e-005 -2.81685e-006 -6.23719e-007 -1.28331e-006 -2.89712e-006 -7.41774e-007 4.05378e-007 -7.4824e-008 0.0189656 -0.00118909 -5.74554e-005 -1.14716e-006 -3.36424e-007 -1.68405e-007 -7.41774e-007 4.05378e-007 -7.4824e-008 0.0122654 -0.00324795 -0.000676135 -6.24016e-007 -1.2835e-006 -2.89719e-006 -7.41774e-007 4.05378e-007 -7.4824e-008 1.98785e-015 -2.38542e-015 -3.18055e-015 -1.14715e-006 -3.36396e-007 -1.68473e-007 -31.5995 -53.2332 -39.9229 12.2146 75.7212 -13.7757 -6.85153 9.14433 -0.1906 1.00408e-006 -2.6532e-006 -2.58156e-006 39.1198 -51.551 71.7763 -130.892 62.5882 135.168 3.21475 13.5871 -6.01338 -2.47065e-006 9.2119e-007 2.37052e-006 
